<?xml version="1.0" encoding="utf-8"?>
<!-- Generator: Adobe Illustrator 26.4.1, SVG Export Plug-In . SVG Version: 6.00 Build 0)  -->
<svg version="1.1" id="Layer_1" xmlns="http://www.w3.org/2000/svg" xmlns:xlink="http://www.w3.org/1999/xlink" x="0px" y="0px"
	 viewBox="0 0 375 814" style="enable-background:new 0 0 375 814;" xml:space="preserve">
<style type="text/css">
	.st0{clip-path:url(#SVGID_00000117666333669880470180000002669060943691872131_);}
	.st1{fill:#FFFFFF;}
	.st2{fill-rule:evenodd;clip-rule:evenodd;fill:#D8F3FF;}
	.st3{fill-rule:evenodd;clip-rule:evenodd;fill:#FFFFFF;}
	.st4{clip-path:url(#SVGID_00000037681986277406289030000016069158258371276172_);}
	.st5{fill-rule:evenodd;clip-rule:evenodd;fill:#C0EBFF;}
	.st6{fill-rule:evenodd;clip-rule:evenodd;fill:#CDF169;}
	.st7{fill-rule:evenodd;clip-rule:evenodd;fill:#EAFCB8;}
	.st8{fill:#CDF169;}
	.st9{fill:#FFFFFF;filter:url(#Adobe_OpacityMaskFilter);}
	.st10{mask:url(#mask0_1358_4659_00000159442882534870161200000000088373658765542554_);}
	.st11{fill:#151519;}
	.st12{fill:#6E85FF;}
	.st13{fill:#C4CEFF;}
	.st14{fill:#7DD87D;}
	.st15{fill:#C7C7C9;}
	.st16{fill:#808080;}
	.st17{opacity:0.1;fill:#C7C7C9;enable-background:new    ;}
	.st18{fill:#D1D1D3;}
	.st19{opacity:0.1;fill:#808080;enable-background:new    ;}
	.st20{opacity:0.2;fill:none;stroke:#FFFFFF;stroke-width:12;stroke-linecap:round;enable-background:new    ;}
	.st21{fill-rule:evenodd;clip-rule:evenodd;fill:#60D260;}
	
		.st22{fill-rule:evenodd;clip-rule:evenodd;fill:#FFFFFF;filter:url(#Adobe_OpacityMaskFilter_00000082362929944105357040000012660107192330481854_);}
	.st23{mask:url(#mask1_1358_4659_00000026879328583919069240000018355191485492667020_);}
	.st24{fill-rule:evenodd;clip-rule:evenodd;fill:#52C052;}
	.st25{fill-rule:evenodd;clip-rule:evenodd;fill:#A1EFA1;}
	.st26{fill-rule:evenodd;clip-rule:evenodd;fill:#21211D;}
	.st27{fill:#E4E4E4;}
	.st28{fill:#F2F2F2;}
	.st29{fill:#57AE09;}
	.st30{fill:none;stroke:#FFFFFF;stroke-width:12;stroke-linecap:round;}
</style>
<g>
	<defs>
		<rect id="SVGID_1_" width="375" height="814"/>
	</defs>
	<clipPath id="SVGID_00000167365269631761933150000008682953173760319626_">
		<use xlink:href="#SVGID_1_"  style="overflow:visible;"/>
	</clipPath>
	<g style="clip-path:url(#SVGID_00000167365269631761933150000008682953173760319626_);">
		<rect class="st1" width="375" height="814"/>
		<path class="st2" d="M343.1,163.1c25.4,13.9,43.8,40.9,52.5,69.3c4.3,13.9,6.7,28.5,4.6,42.9c-4.7,31.8-31.5,56.8-61.5,68.5
			c-21.1,8.2-43.7,11.1-66.2,12.3c-9.8,0.5-20.1-0.4-29.5,2.5c-9.9,3-22.4,0.4-32.5-0.6c-7.9-0.8-15.7-1.6-23.6-2
			c-21.6-1.1-43.1,1.3-64.7,1.3c-9.8,0-22.8,1.5-31.8-3.3c-6.9-3.6-14.4-5.9-21.7-8.8c-15.7-6.3-31-13.8-44.5-24.1
			c-19.7-15-35.4-36.8-37.9-61.4c-2.1-21.3,6.2-43.2,21.1-58.7c11.4-11.9,26.1-20.1,37.1-32.4c9.4-10.6,15.7-23.7,25.3-34.1
			c25.2-27.2,69.5-29.4,103.1-13.6c20.5,9.7,38.5,25.2,60.4,30.9c28.8,7.5,59.9-3.1,89,3.3C329.6,156.8,336.6,159.5,343.1,163.1z"/>
		<path class="st3" d="M12.1,177.8c11.2-11,34.6-5,34.6,9.3c14.3-6.8,24,3,25.3,6.6c-1.2,0.9-1.9,1.9-2.5,1.9
			c-18.2,0.1-36.4,0.1-54.6,0.2C6.9,197.2-0.2,191.2,12.1,177.8z"/>
		<path class="st3" d="M378.7,196c0-0.1,15-9,2-25.8c-2-2.6-11.2-12.7-27.6-5.9c-0.7,0.3-1.4,0.6-2.1,0.8c-0.8,0.3-1.6,1.1-2.3,1.6
			c-1.1,0.8-2.2,1.7-3.3,2.7c-2.1,1.8-4,3.9-5.5,6.3c-1.6,2.6-2.5,5.5-2.8,8.6c-0.6-0.2-1.2-0.5-1.8-0.7c-0.7-0.2-1.5-0.4-2.2-0.6
			c-0.7-0.2-1.4-0.4-2.1-0.4c-0.6,0-1.3-0.3-1.9-0.4c-0.7-0.1-7.9-3.2-16.6,1c-0.6,0.3-1.1,0.7-1.7,1c-1.1,0.8-2.1,1.7-2.9,2.6
			c-0.8,0.9-1.6,1.9-2.2,2.9c-0.3,0.6-0.6,1.1-0.9,1.7c-0.2,0.5-0.6,1.1-0.7,1.7c-0.1,0.5-0.1,1,0,1.4c0,0.2,0.1,0.3,0.2,0.4
			c0.1,0.1,0.2,0.1,0.3,0.1c0.4,0,0.8,0.1,1.2,0.1c0.3,0,0.7,0,1,0.1c0.2,0.1,0.3,0.2,0.5,0.3c0.4,0.1,0.8,0,1.1,0
			c1.6,0,3.2,0,4.8,0c3.2,0,6.4,0,9.6,0c3.2,0,6.4,0,9.6,0c3.2,0,6.4,0,9.6,0c3.2,0,6.4,0,9.6,0c3.2,0,6.4,0,9.6,0
			c3.2,0,6.4,0,9.6,0"/>
		<g>
			<defs>
				<rect id="SVGID_00000101076520128258646550000014314061776241909417_" x="-22" y="166" width="561" height="196"/>
			</defs>
			<clipPath id="SVGID_00000055697180089733521260000017380637467104223395_">
				<use xlink:href="#SVGID_00000101076520128258646550000014314061776241909417_"  style="overflow:visible;"/>
			</clipPath>
			<g style="clip-path:url(#SVGID_00000055697180089733521260000017380637467104223395_);">
				<path class="st5" d="M709,257.2c-0.6,0-1.1,0.4-1.1,0.9v0.4c0,0.5-0.5,0.9-1.1,0.9c-1.7,0-2.7,0-2.7,0v0.7h-1.5v-9
					c0-0.5-0.5-0.9-1.1-0.9h-0.9c-0.6,0-1.1-0.4-1.1-0.9v-2.5c0-0.7-0.7-1.3-1.6-1.3h-18.3c-0.9,0-1.6,0.6-1.6,1.3v20.2
					c0,0.7-0.7,1.3-1.6,1.3h-4.7c-0.9,0-1.6,0.6-1.6,1.3v15.8c0,0.7-0.7,1.3-1.6,1.3h-0.7c-0.9,0-1.6-0.6-1.6-1.3v-0.8
					c0-0.7-0.7-1.3-1.6-1.3h-3.9c-0.6,0-1.1-0.4-1.1-0.9v-0.4c0-0.5-0.5-0.9-1.1-0.9h-0.9c-0.6,0-1.1-0.4-1.1-0.9v-1
					c0-0.7-0.7-1.3-1.6-1.3h-0.7c-0.9,0-1.6,0.6-1.6,1.3v6.5c0,0.5-0.5,0.9-1.1,0.9h-0.4c-0.6,0-0.6-0.4-0.6-0.9v-15.1
					c0-0.1,0-0.1,0-0.2h-11c0,0.1,0,0.1,0,0.2v14.2c0,0.6-0.5,1.2-1.2,1.4l-1.2,0v-66.6c0-0.7-0.7-1.3-1.6-1.3H610
					c-0.9,0-1.6,0.6-1.6,1.3v26.8c0,0.7-0.7,1.3-1.6,1.3h-0.9c-0.9,0-1.6,0.6-1.6,1.3v18.2H603l-0.7-2.7c-0.3-1.3-2.6-1.4-3.1-0.1
					l-0.6,1.9c-0.2,0.6-0.8,0.9-1.5,0.9h-4.5c-0.9,0-1.6-0.6-1.6-1.3v-30.5c0-0.7-0.7-1.3-1.6-1.3h-2.3c-0.9,0-1.6,0.6-1.6,1.3v16.3
					c0,0.7-0.7,1.3-1.6,1.3h-12.4c-0.9,0-1.6-0.6-1.6-1.3v-0.3c0-0.7-0.7-1.3-1.6-1.3h-4.2c-0.9,0-1.6,0.6-1.6,1.3v1.5
					c0,0.7-0.7,1.3-1.6,1.3h-2.3c-0.9,0-1.6-0.6-1.6-1.3v-0.6c0-0.7-0.7-1.3-1.6-1.3h-2.7c-0.9,0-1.6,0.6-1.6,1.3v13.8
					c0,0.7-0.7,1.2-1.5,1.3c-1.3,0-2.6,0-3.6,0c-0.9,0-1.6,0.6-1.6,1.3c0.1,2-0.1,5.5-0.3,7.3c0,0.7-0.7,1.2-1.6,1.2h-1.2
					c-0.9,0-1.6,0.6-1.6,1.3v8.1c0,0.7-0.7,1.3-1.6,1.3h-0.3c-0.9,0-1.6-0.6-1.6-1.3v-15.3c0-0.2-0.1-0.4-0.2-0.6l-2.3-3.4
					c-0.6-0.9-2.3-0.9-2.8,0.1l-2.6,4.6c-0.1,0.2-0.1,0.3-0.1,0.5v10.9c0,0.5-0.5,0.9-1.1,0.9h-0.8c-0.6,0-1.1-0.4-1.1-0.9v-42.1
					c0-0.7-0.7-1.3-1.6-1.3h-17.5c-0.9,0-1.6,0.6-1.6,1.3v5c0,0.5-0.5,0.9-1.1,0.9h-0.1c-0.6,0-1.1,0.4-1.1,0.9v13.1
					c0,0.7-0.7,1.3-1.6,1.3h-4.2c-0.9,0-1.6-0.6-1.6-1.3v-18.9c0-0.7-0.7-1.3-1.6-1.3h-10c-0.9,0-1.6-0.6-1.6-1.3v-14.7
					c0-0.7-0.7-1.3-1.6-1.3h-13.6c-0.9,0-1.6,0.6-1.6,1.3v6c0,0.7-0.7,1.3-1.6,1.3H446v-16.6c0-0.5-0.5-0.9-1.1-0.9H444
					c-0.6,0-1.1-0.4-1.1-0.9v-15.6c0-0.5-0.5-0.9-1.1-0.9h-0.9c-0.6,0-1.1-0.4-1.1-0.9l-33.2-0.6c0,0.4-0.4,0.8-1,0.9l-0.5,0
					c-0.6,0-1,0.4-1,0.9v16.9h-1.7V263c0,0.4-0.2,0.8-0.6,1l-1.4,0.9c-0.4,0.2-0.6,0.6-0.6,1v1.2c-0.2,0-0.3,0-0.3,0v3.8
					c0,0.7-0.7,1.3-1.6,1.3h-0.5c-0.9,0-1.6-0.6-1.6-1.3v-47.5c0-0.7-0.7-1.3-1.6-1.3h-13.9c-0.9,0-1.6,0.6-1.6,1.3v52.5l-8.3-6.1
					c-0.3-0.2-0.5-0.6-0.5-0.9v-37.5v-4.4c0-0.7-0.7-1.3-1.6-1.3h-1.9c-0.9,0-1.6-0.6-1.6-1.3v-1.2c0-0.7-0.7-1.3-1.6-1.3h-10.2
					c-0.9,0-1.6-0.6-1.6-1.3v-22.7c0-0.7-0.7-1.3-1.6-1.3h-8.7c-0.9,0-1.6,0.6-1.6,1.3v49.6c0,0.7-0.7,1.3-1.6,1.3h-7.9
					c-0.9,0-1.6-0.6-1.6-1.3v-41.5c0-0.7-0.7-1.3-1.6-1.3h-11.2c-0.9,0-1.6,0.6-1.6,1.3v64.7c0,0.7-0.7,1.3-1.6,1.3h-0.5
					c-0.9,0-1.6-0.6-1.6-1.3v-1.5c0-0.7-0.8-1.3-1.7-1.3l-2.9,0.1c-0.9,0-1.7-0.5-1.7-1.3v-4.3h0v-2.4c0-0.7-0.7-1.3-1.6-1.3h-2.3
					c-0.9,0-1.6-0.6-1.6-1.3v-1.9h-1.8v-28.5c0-0.7-0.7-1.3-1.6-1.3h-16.6c-0.9,0-1.6,0.6-1.6,1.3v24.8c0,0.7-0.7,1.3-1.6,1.3h-0.7
					c-0.9,0-1.6-0.6-1.6-1.3v-24.8c0-0.7-0.7-1.3-1.6-1.3h-14.6c-0.9,0-1.6,0.6-1.6,1.3v20.1c0,0.7-0.7,1.3-1.6,1.3H252
					c-0.9,0-1.6,0.6-1.6,1.3v8l-0.9-0.4c-0.7-0.3-1.5-0.2-2,0.3l-1.3,1.2c-0.2,0.2-0.4,0.5-0.4,0.8v2.5c0,0.4-0.4,0.8-0.9,0.9
					l-0.7,0.1c-0.5,0.1-0.9,0.4-0.9,0.9v18c0,0.7-0.7,1.3-1.6,1.3h-0.8c-0.9,0-1.6-0.6-1.6-1.3v-32.4c0-0.3-0.2-0.7-0.5-0.9
					l-0.8-0.6c-0.3-0.2-0.5-0.6-0.5-0.9v-5.9c0-0.3-0.2-0.7-0.5-0.9l-2.5-2c-0.3-0.2-0.5-0.6-0.5-0.9v-14.9c0-0.3-0.2-0.7-0.5-0.9
					l-3.8-2.9c-0.3-0.2-0.5-0.6-0.5-0.9v-4.4l-0.7-0.7v-3.7c0-0.3-1.3-1.4-1.3-1.7v-4.1c0-0.4-0.4-0.8-0.9-0.9
					c-0.6-0.3-0.9-0.6-0.9-0.9V197l-0.7-0.4v-3.4l-1.1-0.7v-2.8c0-0.2-0.1-0.4-0.1-0.5l-1.3-20.8h-0.7h-0.9V191
					c0,0.2-0.1,0.4-0.1,0.5l-2.4,4c-0.1,0.2-0.1,0.3-0.1,0.5v3.1c0,0.3-0.2,0.7-0.5,0.9c-1.6,1.4-2.4,2.2-2.4,2.4v4.5h-1.9v5
					c0,0.2-0.1,0.5-0.3,0.6l-0.7,0.5c-0.2,0.2-0.3,0.4-0.3,0.6v4l-1,0.8v4.5h-1.1v14.7c0,0.5-0.5,0.9-1.1,0.9h-0.5
					c-0.6,0-1.1,0.4-1.1,0.9v1.8c0,0.7-0.7,1.3-1.6,1.3c-0.9,0-1.6,0.6-1.6,1.3v35.4c0,0.7-0.7,1.3-1.6,1.3h-0.7
					c-0.9,0-1.6-0.6-1.6-1.3v-1.5c0-0.5-0.5-0.9-1.1-0.9h0c-0.6,0-1.1-0.4-1.1-0.9V245c0-0.7-0.7-1.3-1.6-1.3h-32.7
					c-0.9,0-1.6,0.6-1.6,1.3v39.7c0,0.7-0.7,1.2-1.5,1.3c-1.1,0-4.6,0-5.3-0.1c-0.1,0-0.2,0-0.3,0v-12.6c0-0.7-0.7-1.3-1.6-1.3h-4.1
					c-0.9,0-1.6,0.6-1.6,1.3v89.5c0,0.7,0.7,1.3,1.6,1.3l559.4-1.2V257.2z"/>
				<path class="st5" d="M174,255.2c-0.6,0-1.1,0.4-1.1,0.9v0.4c0,0.5-0.5,0.9-1.1,0.9c-1.7,0-2.7,0-2.7,0v0.7h-1.5v-9
					c0-0.5-0.5-0.9-1.1-0.9h-0.9c-0.6,0-1.1-0.4-1.1-0.9v-2.5c0-0.7-0.7-1.3-1.6-1.3h-18.3c-0.9,0-1.6,0.6-1.6,1.3v20.2
					c0,0.7-0.7,1.3-1.6,1.3h-4.7c-0.9,0-1.6,0.6-1.6,1.3v15.8c0,0.7-0.7,1.3-1.6,1.3h-0.7c-0.9,0-1.6-0.6-1.6-1.3v-0.8
					c0-0.7-0.7-1.3-1.6-1.3h-3.9c-0.6,0-1.1-0.4-1.1-0.9v-0.4c0-0.5-0.5-0.9-1.1-0.9h-0.9c-0.6,0-1.1-0.4-1.1-0.9v-1
					c0-0.7-0.7-1.3-1.6-1.3h-0.7c-0.9,0-1.6,0.6-1.6,1.3v6.5c0,0.5-0.5,0.9-1.1,0.9h-0.4c-0.6,0-0.6-0.4-0.6-0.9v-15.1
					c0-0.1,0-0.1,0-0.2h-11c0,0.1,0,0.1,0,0.2v14.2c0,0.6-0.5,1.2-1.2,1.4l-1.2,0v-66.6c0-0.7-0.7-1.3-1.6-1.3H75
					c-0.9,0-1.6,0.6-1.6,1.3v26.8c0,0.7-0.7,1.3-1.6,1.3h-0.9c-0.9,0-1.6,0.6-1.6,1.3v18.2H68l-0.7-2.7c-0.3-1.3-2.6-1.4-3.1-0.1
					l-0.6,1.9c-0.2,0.6-0.8,0.9-1.5,0.9h-4.5c-0.9,0-1.6-0.6-1.6-1.3v-30.5c0-0.7-0.7-1.3-1.6-1.3h-2.3c-0.9,0-1.6,0.6-1.6,1.3v16.3
					c0,0.7-0.7,1.3-1.6,1.3H36.5c-0.9,0-1.6-0.6-1.6-1.3v-0.3c0-0.7-0.7-1.3-1.6-1.3h-4.2c-0.9,0-1.6,0.6-1.6,1.3v1.5
					c0,0.7-0.7,1.3-1.6,1.3h-2.3c-0.9,0-1.6-0.6-1.6-1.3v-0.6c0-0.7-0.7-1.3-1.6-1.3h-2.7c-0.9,0-1.6,0.6-1.6,1.3v13.8
					c0,0.7-0.7,1.2-1.5,1.3c-1.3,0-2.6,0-3.6,0c-0.9,0-1.6,0.6-1.6,1.3c0.1,2-0.1,5.5-0.3,7.3c0,0.7-0.7,1.2-1.6,1.2H6.4
					c-0.9,0-1.6,0.6-1.6,1.3v8.1c0,0.7-0.7,1.3-1.6,1.3H2.9c-0.9,0-1.6-0.6-1.6-1.3v-15.3c0-0.2-0.1-0.4-0.2-0.6l-2.3-3.4
					c-0.6-0.9-2.3-0.9-2.8,0.1l-2.6,4.6c-0.1,0.2-0.1,0.3-0.1,0.5v10.9c0,0.5-0.5,0.9-1.1,0.9h-0.8c-0.6,0-1.1-0.4-1.1-0.9v-42.1
					c0-0.7-0.7-1.3-1.6-1.3h-17.5c-0.9,0-1.6,0.6-1.6,1.3v5c0,0.5-0.5,0.9-1.1,0.9h-0.1c-0.6,0-1.1,0.4-1.1,0.9v13.1
					c0,0.7-0.7,1.3-1.6,1.3h-4.2c-0.9,0-1.6-0.6-1.6-1.3v-18.9c0-0.7-0.7-1.3-1.6-1.3h-10c-0.9,0-1.6-0.6-1.6-1.3v-14.7
					c0-0.7-0.7-1.3-1.6-1.3h-13.6c-0.9,0-1.6,0.6-1.6,1.3v6c0,0.7-0.7,1.3-1.6,1.3H-89v-16.6c0-0.5-0.5-0.9-1.1-0.9H-91
					c-0.6,0-1.1-0.4-1.1-0.9v-15.6c0-0.5-0.5-0.9-1.1-0.9h-0.9c-0.6,0-1.1-0.4-1.1-0.9l-33.2-0.6c0,0.4-0.4,0.8-1,0.9l-0.5,0
					c-0.6,0-1,0.4-1,0.9v16.9h-1.7V261c0,0.4-0.2,0.8-0.6,1l-1.4,0.9c-0.4,0.2-0.6,0.6-0.6,1v1.2c-0.2,0-0.3,0-0.3,0v3.8
					c0,0.7-0.7,1.3-1.6,1.3h-0.5c-0.9,0-1.6-0.6-1.6-1.3v-47.5c0-0.7-0.7-1.3-1.6-1.3h-13.9c-0.9,0-1.6,0.6-1.6,1.3v52.5l-8.3-6.1
					c-0.3-0.2-0.5-0.6-0.5-0.9v-37.5v-4.4c0-0.7-0.7-1.3-1.6-1.3h-1.9c-0.9,0-1.6-0.6-1.6-1.3v-1.2c0-0.7-0.7-1.3-1.6-1.3h-10.2
					c-0.9,0-1.6-0.6-1.6-1.3v-22.7c0-0.7-0.7-1.3-1.6-1.3h-8.7c-0.9,0-1.6,0.6-1.6,1.3v49.6c0,0.7-0.7,1.3-1.6,1.3h-7.9
					c-0.9,0-1.6-0.6-1.6-1.3v-41.5c0-0.7-0.7-1.3-1.6-1.3h-11.2c-0.9,0-1.6,0.6-1.6,1.3v64.7c0,0.7-0.7,1.3-1.6,1.3h-0.5
					c-0.9,0-1.6-0.6-1.6-1.3v-1.5c0-0.7-0.8-1.3-1.7-1.3l-2.9,0.1c-0.9,0-1.7-0.5-1.7-1.3v-4.3h0v-2.4c0-0.7-0.7-1.3-1.6-1.3h-2.3
					c-0.9,0-1.6-0.6-1.6-1.3v-1.9h-1.8v-28.5c0-0.7-0.7-1.3-1.6-1.3h-16.6c-0.9,0-1.6,0.6-1.6,1.3v24.8c0,0.7-0.7,1.3-1.6,1.3h-0.7
					c-0.9,0-1.6-0.6-1.6-1.3v-24.8c0-0.7-0.7-1.3-1.6-1.3h-14.6c-0.9,0-1.6,0.6-1.6,1.3v20.1c0,0.7-0.7,1.3-1.6,1.3h-2.4
					c-0.9,0-1.6,0.6-1.6,1.3v8l-0.9-0.4c-0.7-0.3-1.5-0.2-2,0.3l-1.3,1.2c-0.2,0.2-0.4,0.5-0.4,0.8v2.5c0,0.4-0.4,0.8-0.9,0.9
					l-0.7,0.1c-0.5,0.1-0.9,0.4-0.9,0.9v18c0,0.7-0.7,1.3-1.6,1.3h-0.8c-0.9,0-1.6-0.6-1.6-1.3v-32.4c0-0.3-0.2-0.7-0.5-0.9
					l-0.8-0.6c-0.3-0.2-0.5-0.6-0.5-0.9v-5.9c0-0.3-0.2-0.7-0.5-0.9l-2.5-2c-0.3-0.2-0.5-0.6-0.5-0.9v-14.9c0-0.3-0.2-0.7-0.5-0.9
					l-3.8-2.9c-0.3-0.2-0.5-0.6-0.5-0.9v-4.4l-0.7-0.7v-3.7c0-0.3-1.3-1.4-1.3-1.7v-4.1c0-0.4-0.4-0.8-0.9-0.9
					c-0.6-0.3-0.9-0.6-0.9-0.9V195l-0.7-0.4v-3.4l-1.1-0.7v-2.8c0-0.2-0.1-0.4-0.1-0.5l-1.3-20.8h-0.7h-0.9V189
					c0,0.2-0.1,0.4-0.1,0.5l-2.4,4c-0.1,0.2-0.1,0.3-0.1,0.5v3.1c0,0.3-0.2,0.7-0.5,0.9c-1.6,1.4-2.4,2.2-2.4,2.4v4.5h-1.9v5
					c0,0.2-0.1,0.5-0.3,0.6l-0.7,0.5c-0.2,0.2-0.3,0.4-0.3,0.6v4l-1,0.8v4.5h-1.1v14.7c0,0.5-0.5,0.9-1.1,0.9h-0.5
					c-0.6,0-1.1,0.4-1.1,0.9v1.8c0,0.7-0.7,1.3-1.6,1.3c-0.9,0-1.6,0.6-1.6,1.3v35.4c0,0.7-0.7,1.3-1.6,1.3h-0.7
					c-0.9,0-1.6-0.6-1.6-1.3v-1.5c0-0.5-0.5-0.9-1.1-0.9h0c-0.6,0-1.1-0.4-1.1-0.9V243c0-0.7-0.7-1.3-1.6-1.3h-32.7
					c-0.9,0-1.6,0.6-1.6,1.3v39.7c0,0.7-0.7,1.2-1.5,1.3c-1.1,0-4.6,0-5.3-0.1c-0.1,0-0.2,0-0.3,0v-12.6c0-0.7-0.7-1.3-1.6-1.3h-4.1
					c-0.9,0-1.6,0.6-1.6,1.3v89.5c0,0.7,0.7,1.3,1.6,1.3l559.4-1.2V255.2z"/>
				<path class="st6" d="M262.3,344.3l3.9,0.2L273,231l-3.9-0.2L262.3,344.3z"/>
				<path class="st6" d="M323.3,348l3.9,0.2l6.9-113.5l-3.9-0.2L323.3,348z"/>
				<path class="st7" d="M262.3,240.6l77.5,4.7l1.2-19.6l-77.5-4.7L262.3,240.6z"/>
				<path class="st8" d="M325.5,237.1l0.8-0.8l-3.1-0.2l0.6-0.9l0.5,0.3c0,0,0,0,0.1,0c0,0,0,0,0.1,0c0,0,0,0,0,0c0,0,0,0,0-0.1
					l-0.6-2.1c0,0,0-0.1-0.1-0.1c0,0-0.1,0-0.1,0l-2.1,0.3c0,0,0,0-0.1,0c0,0,0,0,0,0.1c0,0,0,0,0,0.1c0,0,0,0,0,0l0.5,0.3l-0.5,0.7
					c-0.1,0.2-0.2,0.4-0.2,0.5c0,0.2,0,0.4,0.1,0.6l1,2c0.2,0.4,0.5,0.6,0.9,0.6l2.8,0.1l-0.7-0.9c-0.1-0.1-0.1-0.2-0.1-0.3
					C325.4,237.3,325.4,237.2,325.5,237.1z"/>
				<path class="st8" d="M329.1,231.4l-0.5,0.3l-0.4-0.7c-0.1-0.2-0.2-0.3-0.4-0.4c-0.2-0.1-0.4-0.2-0.5-0.2l-2.2-0.1
					c-0.4,0-0.8,0.2-1,0.5l-1.5,2.4l1.1-0.2c0.1,0,0.2,0,0.3,0.1c0.1,0.1,0.1,0.1,0.2,0.2l0.3,1.1l1.7-2.6l0.5,1l-0.5,0.3
					c0,0,0,0,0,0c0,0,0,0,0,0.1c0,0,0,0,0,0.1c0,0,0,0,0,0l2.1,0.5c0,0,0.1,0,0.1,0c0,0,0.1-0.1,0.1-0.1l0.8-2c0,0,0,0,0-0.1
					c0,0,0,0,0,0C329.2,231.4,329.2,231.4,329.1,231.4C329.1,231.4,329.1,231.4,329.1,231.4z"/>
				<path class="st8" d="M330.4,235.2l-1.3-2.5l-0.4,1.1c0,0.1-0.1,0.2-0.2,0.2c-0.1,0-0.2,0.1-0.3,0l-1.1-0.3l1.4,2.8l-1.1-0.1
					l0-0.6c0,0,0,0,0-0.1s0,0,0,0c0,0,0,0-0.1,0s0,0,0,0l-1.5,1.6c0,0,0,0.1-0.1,0.1c0,0,0,0.1,0,0.1l1.4,1.7c0,0,0,0,0,0
					c0,0,0,0,0.1,0c0,0,0,0,0,0c0,0,0,0,0-0.1l0-0.6l0.8,0c0.2,0,0.4,0,0.6-0.1c0.2-0.1,0.3-0.2,0.4-0.4l1.2-1.9
					C330.6,235.9,330.6,235.5,330.4,235.2z"/>
				<path class="st6" d="M271,232.8l13.3,0.8l0.1-1.8l-6.7-0.4l-6.7-0.4L271,232.8z"/>
				<path class="st6" d="M286.3,233l-5.4-5.4l-1.4,1.1l4.2,4.2l-4.7,3.7l1.2,1.2l4.7-3.7l0,0L286.3,233L286.3,233L286.3,233z"/>
				<path class="st7" d="M260,277.4l77.5,4.7l1.2-19.6l-77.5-4.7L260,277.4z"/>
				<path class="st6" d="M269.2,269l13.3,0.8l0.1-1.8l-13.3-0.8L269.2,269z"/>
				<path class="st6" d="M266.9,268l6.1-4.7l1.2,1.2l-4.7,3.7l4.2,4.2l-1.4,1.1l-4.2-4.2l0,0L266.9,268L266.9,268L266.9,268z"/>
				<path class="st6" d="M322.7,269.2c0.7,0,1,0.5,1,0.9c0,0.4-0.4,0.8-1.1,0.7c-0.6,0-1-0.5-1-0.9
					C321.6,269.6,322,269.2,322.7,269.2z M321.3,275l0.1-1l0.4,0l0.1-1.8l-0.4,0l0.1-1l2.2,0.1l-0.2,2.7l0.5,0l-0.1,1L321.3,275z"/>
				<path class="st6" d="M323.1,267.6c-2.5-0.1-4.6,1.7-4.8,4.2c-0.1,2.5,1.7,4.6,4.2,4.8c2.5,0.1,4.6-1.7,4.8-4.2
					C327.4,269.9,325.6,267.8,323.1,267.6z M322.5,277.7c-3.1-0.2-5.4-2.8-5.2-5.9c0.2-3.1,2.8-5.4,5.9-5.2c3.1,0.2,5.4,2.8,5.2,5.9
					C328.2,275.5,325.5,277.9,322.5,277.7z"/>
				<defs>
					<filter id="Adobe_OpacityMaskFilter" filterUnits="userSpaceOnUse" x="38" y="209.2" width="73.2" height="40.6">
						<feColorMatrix  type="matrix" values="1 0 0 0 0  0 1 0 0 0  0 0 1 0 0  0 0 0 1 0"/>
					</filter>
				</defs>
				
					<mask maskUnits="userSpaceOnUse" x="38" y="209.2" width="73.2" height="40.6" id="mask0_1358_4659_00000159442882534870161200000000088373658765542554_">
					<path class="st9" d="M111.2,209H38v41.1h73.2V209z"/>
				</mask>
				<g class="st10">
					<path class="st11" d="M64.3,249.7c-1.7,0-3.4-0.2-5-0.6c-3.4-0.7-6.2-2.8-8.1-6c-0.4-0.7-0.8-1.5-1.1-2.3
						c-5.3-0.3-9.3-3-11.1-7.6c-1.2-3-1.3-6.5-0.2-9.9c1.1-3.6,3.4-6.7,6.7-9c0.1-0.1,0.2,0,0.3,0c0.1,0.1,0,0.2,0,0.3
						c-7,5-8.5,13.1-6.3,18.5c1.7,4.4,5.6,7,10.6,7.4c-0.8-2.2-1.2-4.7-1-7.3c0.2-3.3,1.3-6.3,3.1-8.6c2-2.5,4.8-4,8.1-4.3
						c2.9-0.2,6.9,0.5,9.2,2.9c1.4,1.5,2,3.3,1.7,5.5c-0.5,3.9-3.9,6.7-6.6,8.3c-3.1,1.8-7,3.1-10.5,3.6c-1.2,0.2-2.4,0.2-3.5,0.2
						c1.5,3.7,4.4,6.9,8.9,7.9c15.7,3.5,28.3-10.4,34.9-24.6c0-0.1,0.2-0.1,0.3-0.1c0.1,0,0.1,0.2,0.1,0.3
						c-2,4.4-6.5,12.7-13.6,18.7c-3.2,2.7-6.5,4.6-9.9,5.6C68.8,249.4,66.6,249.7,64.3,249.7z M50.3,240.6c1.1,0.1,2.3,0,3.6-0.2
						c6.5-0.9,16-5.1,16.8-11.6c0.2-2.1-0.3-3.9-1.6-5.2c-2.2-2.3-6.1-3-8.9-2.8c-7.4,0.6-10.5,7.1-10.8,12.5
						C49.1,235.7,49.5,238.2,50.3,240.6z"/>
					<path class="st12" d="M105.6,217.8l-10.8,5.5L94,217l15.6-7.6l1.5-0.3L105.6,217.8z"/>
					<path class="st13" d="M96.6,217.7l14.5-8.6l-3.7,13.5L96.6,217.7z"/>
					<path class="st13" d="M109.7,209.4L94,217l-9.2-1.1L109.7,209.4z"/>
					<path class="st11" d="M94.8,223.4C94.8,223.4,94.8,223.4,94.8,223.4c-0.1,0-0.2-0.1-0.2-0.2l1.9-5.5c0,0,0.1-0.1,0.1-0.1
						c0,0,0.1,0,0.1,0l10.8,5c0.1,0,0.1,0.1,0.1,0.3c0,0.1-0.1,0.1-0.3,0.1L96.8,218l-1.8,5.3C94.9,223.4,94.9,223.4,94.8,223.4z"/>
				</g>
			</g>
		</g>
		<path class="st14" d="M478,368.7c-267.9-97.6-467.8-39.9-580,0V1125h580V368.7z"/>
		<path class="st15" d="M52.8,384.2l0.5,37.3l56.2-0.8c1,0,1.9-0.4,2.6-1.1c0.7-0.7,1.1-1.7,1.1-2.7l-0.5-33.5L52.8,384.2z"/>
		<path class="st16" d="M53.3,417.8l-0.5-33.5L38,373.5l0.7,44.5c0,0.5,0.1,1,0.3,1.4c0.2,0.5,0.5,0.9,0.8,1.2
			c0.4,0.3,0.8,0.6,1.2,0.8c0.5,0.2,1,0.3,1.4,0.3l14.6-0.2c-1,0-2-0.4-2.7-1.1C53.7,419.7,53.3,418.8,53.3,417.8z"/>
		<path class="st15" d="M101.5,427.6l3.4,0l1.6-6.8l-6.8,0.1L101.5,427.6z"/>
		<path class="st15" d="M64.2,428.2l3.4,0l1.6-6.8l-6.8,0.1L64.2,428.2z"/>
		<path class="st16" d="M84.6,427.9l3.4-0.1l1.6-6.8l-6.8,0.1L84.6,427.9z"/>
		<path class="st16" d="M47.3,428.4l3.4,0l1.6-6.8l-6.8,0.1L47.3,428.4z"/>
		<path class="st17" d="M52.9,395.1l-14.6,0.2c-0.2,0-0.3-0.1-0.4-0.2c-0.1-0.1-0.2-0.3-0.2-0.4c0-0.2,0.1-0.3,0.2-0.4
			c0.1-0.1,0.3-0.2,0.4-0.2l14.6-0.2c0.2,0,0.3,0.1,0.4,0.2c0.1,0.1,0.2,0.3,0.2,0.4c0,0.2-0.1,0.3-0.2,0.4
			C53.3,395,53.1,395.1,52.9,395.1z"/>
		<path class="st17" d="M53.2,412l-14.6,0.2c-0.2,0-0.3-0.1-0.4-0.2c-0.1-0.1-0.2-0.3-0.2-0.4c0-0.2,0.1-0.3,0.2-0.4
			c0.1-0.1,0.3-0.2,0.4-0.2l14.6-0.2c0.2,0,0.3,0.1,0.4,0.2c0.1,0.1,0.2,0.3,0.2,0.4c0,0.2-0.1,0.3-0.2,0.4
			C53.5,411.9,53.4,412,53.2,412z"/>
		<path class="st18" d="M34.6,370.7l0,0.3l18.2,13.2l63.3-0.9l0-1.4c0-0.6-0.2-1.2-0.4-1.7c-0.3-0.5-0.7-1-1.1-1.3l-15.4-11.2
			c-0.9-0.6-1.9-1-3-1l-13.7,0.2l18.3,13.3l-5.6,0.1L76.8,367l-16.4,0.2l18.3,13.3l-5.6,0.1l-18.3-13.3l-17,0.3
			c-0.4,0-0.8,0.1-1.2,0.3c-0.4,0.2-0.7,0.4-1,0.7s-0.5,0.6-0.7,1C34.7,369.9,34.6,370.3,34.6,370.7z"/>
		<path class="st19" d="M112.9,394.2l-59.9,0.9c-0.2,0-0.3-0.1-0.4-0.2c-0.1-0.1-0.2-0.3-0.2-0.4c0-0.2,0.1-0.3,0.2-0.4
			c0.1-0.1,0.3-0.2,0.4-0.2l59.9-0.9c0.2,0,0.3,0.1,0.4,0.2c0.1,0.1,0.2,0.3,0.2,0.4c0,0.2-0.1,0.3-0.2,0.4
			C113.2,394.1,113,394.2,112.9,394.2z"/>
		<path class="st19" d="M53.2,410.7l26.7-0.4l0,1.3L53.2,412c-0.2,0-0.3-0.1-0.4-0.2c-0.1-0.1-0.2-0.3-0.2-0.4
			c0-0.2,0.1-0.3,0.2-0.4C52.9,410.8,53,410.7,53.2,410.7z"/>
		<path class="st19" d="M113.7,410.5c0,0.2-0.1,0.3-0.2,0.4c-0.1,0.1-0.3,0.2-0.4,0.2l-27.6,0.4l0-1.3l27.6-0.4
			c0.2,0,0.3,0.1,0.4,0.2C113.7,410.2,113.7,410.3,113.7,410.5z"/>
		<path class="st15" d="M60.3,367.2l0,2.1l-2.8,0L73,380.6l5.6-0.1L60.3,367.2z"/>
		<path class="st15" d="M82.4,366.9l0,2.1l-2.8,0l15.4,11.2l5.6-0.1L82.4,366.9z"/>
		<path class="st1" d="M95.9,403.8l-1.3-2.1l-8.4-1.6l4.6,7.6l-3.2,0l0-1.6c0-0.1,0-0.1-0.1-0.2c0,0-0.1-0.1-0.1-0.1
			c-0.1,0-0.1,0-0.2,0c-0.1,0-0.1,0-0.1,0.1l-7.1,8.3l10.1-0.1c0.6,0,1.1-0.2,1.6-0.5c0.5-0.3,0.9-0.7,1.1-1.2l3.1-5.6
			C96.4,405.9,96.4,404.7,95.9,403.8z"/>
		<path class="st1" d="M88.8,392.1c-0.3-0.5-0.7-0.9-1.2-1.1c-0.5-0.3-1-0.4-1.6-0.4l-6.4,0.1c-1.1,0-2.2,0.6-2.7,1.5l-1.2,2.2
			l2.8,8l4.3-7.7l1.6,2.7l-1.4,0.8c0,0-0.1,0.1-0.1,0.1c0,0.1,0,0.1,0,0.2c0,0.1,0,0.1,0.1,0.1c0,0,0.1,0.1,0.1,0.1l10.7,2
			L88.8,392.1z"/>
		<path class="st1" d="M75.5,408l1.5-2.8l1.4,0.8c0,0,0.1,0,0.2,0c0.1,0,0.1,0,0.2-0.1c0,0,0.1-0.1,0.1-0.1c0-0.1,0-0.1,0-0.2
			l-3.6-10.3l-4.9,8.8c-0.3,0.5-0.4,1-0.4,1.6c0,0.6,0.2,1.1,0.5,1.6l3.3,5.5c0.6,1,1.6,1.6,2.7,1.6l2.4,0l5.6-6.5L75.5,408z"/>
		<path class="st20" d="M191.8,315c36.9,98.1,75.1,268.8-65.8,407"/>
		<path class="st21" d="M156.8,427.8v2H95c0.1-1.3,0.6-2.4,1.5-3.3c0.9-0.9,2.1-1.5,3.5-1.5c1.3,0,2.5,0.5,3.4,1.4v-1.7
			c0-1.7,0.7-3.3,1.9-4.5c1.1-1.1,2.7-1.9,4.5-1.9c1.9,0,3.5,0.8,4.7,2.1v-1.7c0-2.7,1.1-5.1,2.8-6.9c1.8-1.8,4.2-2.8,6.9-2.8
			c4.4,0,8.2,3,9.3,7c0.8-0.6,1.7-1.1,2.7-1.5c1-0.3,2.1-0.5,3.2-0.5c5.3,0,9.6,4.3,9.7,9.6c0.4-0.3,0.8-0.5,1.3-0.6
			c0.5-0.1,1-0.2,1.5-0.2C154.6,422.8,156.8,425,156.8,427.8z"/>
		<defs>
			
				<filter id="Adobe_OpacityMaskFilter_00000007422103090984226960000007990455033568831912_" filterUnits="userSpaceOnUse" x="270.1" y="560" width="38.4" height="68.1">
				<feColorMatrix  type="matrix" values="1 0 0 0 0  0 1 0 0 0  0 0 1 0 0  0 0 0 1 0"/>
			</filter>
		</defs>
		
			<mask maskUnits="userSpaceOnUse" x="270.1" y="560" width="38.4" height="68.1" id="mask1_1358_4659_00000026879328583919069240000018355191485492667020_">
			
				<path style="fill-rule:evenodd;clip-rule:evenodd;fill:#FFFFFF;filter:url(#Adobe_OpacityMaskFilter_00000007422103090984226960000007990455033568831912_);" d="
				M270.1,560h38.4v68.1h-38.4V560z"/>
		</mask>
		<g class="st23">
			<path class="st24" d="M289.3,628.1c-10.6,0-19.2-8.6-19.2-19.2v-29.7c0-10.6,8.6-19.2,19.2-19.2c10.6,0,19.2,8.6,19.2,19.2v29.7
				C308.5,619.5,299.9,628.1,289.3,628.1z"/>
		</g>
		<path class="st25" d="M343.5,619.2c0,12.5-10.2,22.7-22.7,22.7c-12.5,0-22.7-10.2-22.7-22.7c0-12.5,10.2-22.7,22.7-22.7
			C333.3,596.5,343.5,606.7,343.5,619.2z"/>
		<path class="st26" d="M289.3,705.7c-0.1,0-0.3-0.1-0.3-0.3V581.9c0-0.1,0.1-0.3,0.3-0.3s0.3,0.1,0.3,0.3v123.6
			C289.6,705.6,289.5,705.7,289.3,705.7z"/>
		<path class="st26" d="M320.7,705.7c-0.1,0-0.3-0.1-0.3-0.3v-85.1c0-0.1,0.1-0.3,0.3-0.3s0.3,0.1,0.3,0.3v85.1
			C321,705.6,320.9,705.7,320.7,705.7z"/>
		<path class="st26" d="M346.9,706.1c0,0.1-0.1,0.3-0.3,0.3h-85.1c-0.1,0-0.3-0.1-0.3-0.3c0-0.1,0.1-0.3,0.3-0.3h85.1
			C346.8,705.8,346.9,706,346.9,706.1z"/>
		<path class="st26" d="M289.3,595.8c-0.1,0-0.1,0-0.2,0c-0.1-0.1-0.1-0.2-0.1-0.4l12.2-16.7c0.1-0.1,0.2-0.1,0.4-0.1
			c0.1,0.1,0.1,0.2,0.1,0.4l-12.2,16.7C289.5,595.7,289.4,595.8,289.3,595.8z"/>
		<path class="st26" d="M289.3,605.5c-0.1,0-0.1,0-0.2-0.1l-12.1-11.2c-0.1-0.1-0.1-0.3,0-0.4c0.1-0.1,0.3-0.1,0.4,0l12.1,11.2
			c0.1,0.1,0.1,0.3,0,0.4C289.5,605.5,289.4,605.5,289.3,605.5z"/>
		<path class="st26" d="M320.7,628.3c-0.1,0-0.1,0-0.2-0.1c-0.1-0.1-0.1-0.3,0-0.4l13.1-10.9c0.1-0.1,0.3-0.1,0.4,0
			c0.1,0.1,0.1,0.3,0,0.4l-13.1,10.9C320.8,628.3,320.8,628.3,320.7,628.3z"/>
		<path class="st26" d="M320.7,635c0,0-0.1,0-0.1,0l-10.4-6.7c-0.1-0.1-0.2-0.2-0.1-0.4c0.1-0.1,0.2-0.2,0.4-0.1l10.4,6.7
			c0.1,0.1,0.2,0.2,0.1,0.4C320.9,635,320.8,635,320.7,635z"/>
		<path class="st27" d="M309.5,350c1.8,0.1,3.2-1.3,3.3-3c0.1-1.8-1.3-3.2-3-3.3c-1.8-0.1-3.2,1.3-3.3,3
			C306.4,348.4,307.7,349.9,309.5,350z"/>
		<path class="st28" d="M332.8,353.9l-7.5,43.1c-0.1,0.4-0.3,0.8-0.6,1.1c-0.3,0.3-0.8,0.4-1.2,0.4l-22.3-1.1
			c-0.4,0-0.8-0.2-1.1-0.5c-0.3-0.3-0.5-0.7-0.5-1.1l-3.4-43.6c-0.1-0.8,0-1.5,0.3-2.2c0.3-0.7,0.7-1.4,1.2-1.9
			c0.5-0.5,1.2-1,1.9-1.2c0.7-0.3,1.4-0.4,2.2-0.4l26.1,1.2c0.8,0,1.5,0.2,2.2,0.6c0.7,0.3,1.3,0.8,1.7,1.4c0.5,0.6,0.8,1.3,1,2
			C332.9,352.4,333,353.1,332.8,353.9z"/>
		<path class="st29" d="M312.5,378.5l1.7-1.8l-6.5-0.3l1.3-2l1,0.6c0,0,0.1,0,0.1,0c0,0,0.1,0,0.1,0c0,0,0.1-0.1,0.1-0.1
			c0,0,0-0.1,0-0.1l-1.3-4.4c0-0.1-0.1-0.2-0.2-0.2c-0.1,0-0.2-0.1-0.3-0.1l-4.6,0.7c0,0-0.1,0-0.1,0.1c0,0-0.1,0.1-0.1,0.1
			c0,0,0,0.1,0,0.1c0,0,0,0.1,0.1,0.1l1,0.6l-0.9,1.5c-0.2,0.4-0.3,0.8-0.4,1.2c0,0.4,0.1,0.8,0.3,1.2l2.2,4.2
			c0.4,0.8,1.1,1.3,1.9,1.3l6,0.3l-1.5-1.9c-0.1-0.2-0.2-0.4-0.2-0.5C312.3,378.9,312.4,378.7,312.5,378.5z"/>
		<path class="st29" d="M320.2,366.3l-1,0.5l-0.8-1.6c-0.2-0.4-0.5-0.7-0.8-0.9c-0.3-0.2-0.7-0.3-1.2-0.4l-4.7-0.2
			c-0.8,0-1.6,0.3-2.1,1l-3.3,5.1l2.4-0.4c0.2,0,0.4,0,0.6,0.1c0.2,0.1,0.3,0.3,0.3,0.5l0.7,2.4l3.5-5.5l1.1,2.1l-1,0.5
			c0,0-0.1,0-0.1,0.1c0,0,0,0.1,0,0.1c0,0,0,0.1,0,0.1c0,0,0.1,0.1,0.1,0.1l4.5,1.1c0.1,0,0.2,0,0.3,0c0.1,0,0.1-0.1,0.2-0.2
			l1.7-4.3c0,0,0-0.1,0-0.1c0,0,0-0.1-0.1-0.1c0,0-0.1,0-0.1,0C320.2,366.2,320.2,366.2,320.2,366.3z"/>
		<path class="st29" d="M323,374.3l-2.8-5.4l-0.9,2.3c-0.1,0.2-0.2,0.3-0.4,0.4c-0.2,0.1-0.4,0.1-0.6,0.1l-2.4-0.6l3,5.9l-2.4-0.1
			l0.1-1.2c0,0,0-0.1,0-0.1c0,0-0.1-0.1-0.1-0.1c0,0-0.1,0-0.1,0c0,0-0.1,0-0.1,0.1l-3.2,3.3c-0.1,0.1-0.1,0.1-0.1,0.2
			c0,0.1,0,0.2,0.1,0.2l2.9,3.6c0,0,0.1,0.1,0.1,0.1s0.1,0,0.1,0c0,0,0.1,0,0.1-0.1c0,0,0-0.1,0-0.1l0.1-1.2l1.8,0.1
			c0.4,0,0.8-0.1,1.2-0.3c0.4-0.2,0.7-0.5,0.9-0.8l2.6-4C323.3,375.9,323.4,375,323,374.3z"/>
		<path class="st30" d="M126,722c76.5-75,100.2-159.6,100-237"/>
		<circle class="st14" cx="226" cy="486" r="4"/>
		<path class="st21" d="M395.8,413v3.5H288c0.1-2.2,1.1-4.2,2.5-5.7c1.6-1.6,3.7-2.5,6.1-2.5c2.3,0,4.4,0.9,6,2.4v-3
			c0-3,1.2-5.8,3.2-7.8c2-2,4.8-3.2,7.8-3.2c3.3,0,6.2,1.4,8.2,3.6v-3c0-4.7,1.9-8.9,5-12c3.1-3.1,7.3-5,12-5
			c7.7,0,14.2,5.2,16.3,12.2c1.4-1.1,3-2,4.8-2.6c1.7-0.6,3.6-0.9,5.5-0.9c9.3,0,16.8,7.5,16.9,16.7c0.7-0.5,1.4-0.8,2.3-1.1
			c0.8-0.2,1.7-0.4,2.6-0.4C391.9,404.3,395.8,408.2,395.8,413z"/>
		<path d="M85.9,554.3L85.9,554.3c1-0.1,1.8,0.7,1.8,1.6l1.7,26.4c0.1,1-0.7,1.8-1.6,1.8h0c-1,0.1-1.8-0.7-1.8-1.6l-1.7-26.4
			C84.2,555.2,85,554.4,85.9,554.3z"/>
		<path class="st1" d="M56,512.1l53.9-3.5c4.4-0.3,8.2,3,8.5,7.5l2,31.1c0.3,4.4-3,8.2-7.5,8.5l-53.9,3.5c-4.4,0.3-8.2-3-8.5-7.5
			l-2-31.1C48.2,516.2,51.6,512.4,56,512.1z"/>
		<path class="st14" d="M62.2,540.4l-0.6-8.6l4.4-0.3c1.1-0.1,1.9,0.6,1.9,1.6c0.1,1-0.6,1.8-1.7,1.9l-1.2,0.1
			c-0.2,0-0.3,0.1-0.3,0.2c0,0.1,0,0.1,0.1,0.2l3.4,4.5l-1.3,0.1l-3.4-4.6c-0.1-0.1-0.2-0.3-0.4-0.3c-0.2,0-0.3,0.2-0.3,0.3l0.3,4.8
			L62.2,540.4z M62.9,533.8c0,0.4,0.2,0.5,0.6,0.5l2.6-0.2c0.6,0,0.9-0.4,0.9-0.9c0-0.5-0.4-0.8-1-0.8l-2.6,0.2
			c-0.3,0-0.5,0.2-0.5,0.5L62.9,533.8z M69.3,539.9l-0.6-8.6l5.4-0.4l0.1,0.9l-3.8,0.2c-0.3,0-0.5,0.2-0.4,0.5l0.1,0.8
			c0,0.3,0.2,0.4,0.5,0.4l3.8-0.2l0.1,0.9l-3.8,0.2c-0.3,0-0.5,0.2-0.5,0.6l0.2,3.1c0,0.3,0.2,0.5,0.5,0.5l3.8-0.2l0.1,0.9
			L69.3,539.9z M78.8,539.4c-1.9,0.1-3.3-1-3.4-2.8l-0.2-2.8c-0.1-1.8,1.1-3.1,3-3.2c1.9-0.1,3.3,1,3.4,2.8l0,0.7l-1.1,0.1l0-0.7
			c-0.1-1.2-1-2-2.2-1.9c-1.3,0.1-2,1-2,2.3l0.2,2.7c0.1,1.3,1,2.1,2.2,2c1.3-0.1,2-1,2-2.2l0-0.7l1.1-0.1l0,0.7
			C81.9,538,80.7,539.3,78.8,539.4z M87.1,530.1l1.1-0.1l-2.3,8.8l-1.1,0.1l0.4-1.6c0.1-0.3-0.1-0.6-0.5-0.6l-0.5,0l-2.6-6.3
			l1.2-0.1l2.1,5.2c0.1,0.1,0.1,0.2,0.2,0.2l0.3,0c0.1,0,0.2-0.1,0.2-0.2L87.1,530.1z M92.3,538.5c-1.9,0.1-3.3-1-3.4-2.8l-0.2-2.8
			c-0.1-1.8,1.1-3.1,3-3.2c1.9-0.1,3.3,1,3.4,2.8l0,0.7l-1.1,0.1l0-0.7c-0.1-1.2-1-2-2.2-1.9c-1.3,0.1-2,1-2,2.3l0.2,2.7
			c0.1,1.3,1,2.1,2.2,2c1.3-0.1,2-1,2-2.2l0-0.7l1.1-0.1l0,0.7C95.4,537.1,94.2,538.4,92.3,538.5z M96.6,538.1l-0.6-8.6l1.1-0.1
			l0.5,7.1c0,0.3,0.2,0.5,0.5,0.5l3.7-0.2l0.1,0.9L96.6,538.1z M102.7,537.7l-0.6-8.6l5.4-0.4l0.1,0.9l-3.8,0.2
			c-0.3,0-0.5,0.2-0.4,0.5l0.1,0.8c0,0.3,0.2,0.4,0.5,0.4l3.8-0.2l0.1,0.9l-3.8,0.2c-0.3,0-0.5,0.2-0.5,0.6l0.2,3.1
			c0,0.3,0.2,0.5,0.5,0.5l3.8-0.2l0.1,0.9L102.7,537.7z"/>
		<path class="st21" d="M107.8,600v3.5H0c0.1-2.2,1.1-4.2,2.5-5.7c1.6-1.6,3.7-2.5,6.1-2.5c2.3,0,4.4,0.9,6,2.4v-3
			c0-3,1.2-5.8,3.2-7.8c2-2,4.8-3.2,7.8-3.2c3.3,0,6.2,1.4,8.2,3.6v-3c0-4.7,1.9-8.9,5-12c3.1-3.1,7.3-5,12-5
			c7.7,0,14.2,5.2,16.3,12.2c1.4-1.1,3-2,4.8-2.6c1.7-0.6,3.6-0.9,5.5-0.9c9.3,0,16.8,7.5,16.9,16.7c0.7-0.5,1.4-0.8,2.3-1.1
			c0.8-0.2,1.7-0.4,2.6-0.4C103.9,591.3,107.8,595.2,107.8,600z"/>
	</g>
</g>
</svg>
